<svg width="37" height="36" viewBox="0 0 37 36" fill="none" xmlns="http://www.w3.org/2000/svg">
<g clip-path="url(#clip0_142_11195)">
<path d="M31.228 5.27203C27.8281 1.87235 23.308 0 18.5 0C13.692 0 9.17185 1.87235 5.77203 5.27203C2.37235 8.67185 0.5 13.192 0.5 18C0.5 22.808 2.37235 27.3281 5.77203 30.728C9.17185 34.1276 13.692 36 18.5 36C23.308 36 27.8281 34.1276 31.228 30.728C34.6276 27.3281 36.5 22.808 36.5 18C36.5 13.192 34.6276 8.67185 31.228 5.27203ZM17.8122 2.1252C19.0842 5.29713 18.3573 7.0823 17.5232 9.12937C16.7795 10.9547 15.9573 12.9736 16.6583 15.9311C14.7939 14.7172 14.173 13.2435 13.4809 11.5997C12.6385 9.59913 11.6979 7.36516 8.4418 5.70712C11.0176 3.59571 14.2662 2.277 17.8122 2.1252ZM6.79557 7.26391C9.93214 8.60716 10.6797 10.3823 11.5368 12.4182C12.3016 14.2346 13.1477 16.2434 15.734 17.8388C13.558 18.2985 12.0767 17.6961 10.4252 17.0233C8.41339 16.2036 6.16698 15.2883 2.68749 16.4223C3.03547 12.9094 4.53214 9.72949 6.79557 7.26391ZM2.62513 18.6877C5.79727 17.4158 7.58223 18.1427 9.6293 18.9768C10.9659 19.5214 12.406 20.1081 14.2426 20.1081C14.9142 20.1081 15.6392 20.0291 16.4311 19.8413C15.2173 21.706 13.7434 22.327 12.0995 23.019C10.0991 23.8614 7.86516 24.802 6.20705 28.0581C4.09564 25.4823 2.77693 22.2337 2.62513 18.6877ZM17.5232 26.0747C16.7036 28.0865 15.7883 30.333 16.9223 33.8124C13.4094 33.4646 10.2295 31.9679 7.76391 29.7044C9.10716 26.5678 10.8823 25.8203 12.9182 24.9631C14.7346 24.1983 16.7433 23.3523 18.3388 20.7659C18.7983 22.9418 18.196 24.4233 17.5232 26.0747ZM34.3748 17.3123C31.2028 18.5842 29.4177 17.8573 27.3706 17.0232C25.5453 16.2795 23.5265 15.4573 20.5689 16.1584C21.7827 14.294 23.2565 13.673 24.9003 12.981C26.9009 12.1386 29.1348 11.198 30.7929 7.94187C32.9043 10.5177 34.223 13.7663 34.3748 17.3123ZM19.4767 9.92531C20.2963 7.91353 21.2117 5.66698 20.0777 2.18756C23.5906 2.5354 26.7704 4.03214 29.236 6.29557C27.8928 9.43214 26.1176 10.1797 24.0817 11.0368C22.2654 11.8017 20.2567 12.6477 18.6612 15.2341C18.2016 13.0582 18.8039 11.5767 19.4767 9.92531ZM19.1878 33.8748C17.9158 30.7029 18.6427 28.9177 19.4768 26.8706C20.2205 25.0453 21.0427 23.0264 20.3417 20.0689C22.2061 21.2827 22.827 22.7565 23.5191 24.4003C24.3615 26.4009 25.3021 28.6348 28.5582 30.2929C25.9824 32.4043 22.7338 33.723 19.1878 33.8748ZM30.2044 28.7361C27.0679 27.3928 26.3203 25.6177 25.4632 23.5818C24.6984 21.7654 23.8523 19.7566 21.266 18.1612C23.442 17.7015 24.9233 18.3038 26.5748 18.9767C27.9114 19.5213 29.3515 20.1081 31.1881 20.108C32.1157 20.108 33.145 19.9574 34.3126 19.5769C33.9647 23.0902 32.468 26.2704 30.2044 28.7361Z" fill="black"/>
</g>
<defs>
<clipPath id="clip0_142_11195">
<rect width="36" height="36" fill="white" transform="translate(0.5)"/>
</clipPath>
</defs>
</svg>
