<svg width="37" height="36" viewBox="0 0 37 36" fill="none" xmlns="http://www.w3.org/2000/svg">
<path fill-rule="evenodd" clip-rule="evenodd" d="M11.7048 26.205C11.9157 25.9943 12.2016 25.876 12.4998 25.876C12.7979 25.876 13.0838 25.9943 13.2948 26.205L18.5043 31.41L23.7048 26.214C23.8078 26.1035 23.932 26.0148 24.07 25.9533C24.208 25.8918 24.3569 25.8588 24.508 25.8561C24.659 25.8535 24.8091 25.8812 24.9492 25.9378C25.0892 25.9944 25.2165 26.0786 25.3233 26.1855C25.4301 26.2923 25.5144 26.4195 25.5709 26.5596C25.6275 26.6997 25.6553 26.8497 25.6526 27.0008C25.65 27.1518 25.6169 27.3008 25.5554 27.4388C25.4939 27.5768 25.4053 27.701 25.2948 27.804L19.2993 33.7965C19.0883 34.0072 18.8024 34.1255 18.5043 34.1255C18.2061 34.1255 17.9202 34.0072 17.7093 33.7965L11.7048 27.7965C11.6002 27.692 11.5173 27.568 11.4607 27.4314C11.4041 27.2949 11.375 27.1486 11.375 27.0008C11.375 26.853 11.4041 26.7066 11.4607 26.5701C11.5173 26.4335 11.6002 26.3095 11.7048 26.205ZM11.7048 9.78601C11.4941 9.57507 11.3757 9.28913 11.3757 8.99101C11.3757 8.69288 11.4941 8.40695 11.7048 8.19601L17.7003 2.20501C17.9112 1.99433 18.1971 1.876 18.4953 1.876C18.7934 1.876 19.0793 1.99433 19.2903 2.20501L25.2948 8.20501C25.4053 8.308 25.4939 8.4322 25.5554 8.5702C25.6169 8.7082 25.65 8.85717 25.6526 9.00823C25.6553 9.15928 25.6275 9.30932 25.5709 9.44941C25.5144 9.58949 25.4301 9.71674 25.3233 9.82357C25.2165 9.9304 25.0892 10.0146 24.9492 10.0712C24.8091 10.1278 24.659 10.1556 24.508 10.1529C24.3569 10.1502 24.208 10.1172 24.07 10.0557C23.932 9.99419 23.8078 9.90554 23.7048 9.79501L18.4953 4.59001L13.2948 9.78601C13.0838 9.99669 12.7979 10.115 12.4998 10.115C12.2016 10.115 11.9157 9.99669 11.7048 9.78601Z" fill="black"/>
<path fill-rule="evenodd" clip-rule="evenodd" d="M18.5 34.125C18.2016 34.125 17.9155 34.0065 17.7045 33.7955C17.4935 33.5845 17.375 33.2984 17.375 33L17.375 3C17.375 2.70163 17.4935 2.41548 17.7045 2.2045C17.9155 1.99353 18.2016 1.875 18.5 1.875C18.7984 1.875 19.0845 1.99353 19.2955 2.2045C19.5065 2.41548 19.625 2.70163 19.625 3V33C19.625 33.2984 19.5065 33.5845 19.2955 33.7955C19.0845 34.0065 18.7984 34.125 18.5 34.125Z" fill="black"/>
</svg>
