<svg width="36" height="36" viewBox="0 0 36 36" fill="none" xmlns="http://www.w3.org/2000/svg">
<path fill-rule="evenodd" clip-rule="evenodd" d="M6.22777 13.908C6.47126 12.9346 7.03308 12.0705 7.82395 11.453C8.61483 10.8356 9.58939 10.5001 10.5928 10.5H25.4083C26.4116 10.5001 27.3862 10.8356 28.1771 11.453C28.968 12.0705 29.5298 12.9346 29.7733 13.908L33.5233 28.908C33.6892 29.5713 33.7018 30.2637 33.5601 30.9326C33.4184 31.6015 33.1261 32.2293 32.7055 32.7683C32.2849 33.3074 31.747 33.7435 31.1326 34.0435C30.5182 34.3436 29.8435 34.4997 29.1598 34.5H6.84277C6.1589 34.4999 5.48405 34.344 4.86948 34.044C4.25491 33.7441 3.71679 33.308 3.296 32.7689C2.87521 32.2298 2.58281 31.602 2.44103 30.933C2.29925 30.2639 2.31182 29.5714 2.47777 28.908L6.22777 13.908ZM10.5928 13.5C10.2584 13.5 9.93357 13.6118 9.66996 13.8175C9.40634 14.0232 9.21903 14.3111 9.13777 14.6355L5.38777 29.6355C5.33236 29.8567 5.32811 30.0876 5.37533 30.3106C5.42254 30.5337 5.51999 30.7431 5.66027 30.9228C5.80054 31.1026 5.97995 31.248 6.18485 31.348C6.38975 31.448 6.61476 31.5 6.84277 31.5H29.1583C29.3861 31.4999 29.611 31.448 29.8157 31.348C30.0205 31.2481 30.1998 31.1029 30.34 30.9233C30.4803 30.7437 30.5778 30.5346 30.6251 30.3117C30.6725 30.0888 30.6684 29.8581 30.6133 29.637L26.8633 14.637C26.7824 14.3126 26.5954 14.0245 26.3321 13.8185C26.0687 13.6125 25.7441 13.5004 25.4098 13.5H10.5928Z" fill="black"/>
<path fill-rule="evenodd" clip-rule="evenodd" d="M18 4.5C17.2044 4.5 16.4413 4.81607 15.8787 5.37868C15.3161 5.94129 15 6.70435 15 7.5C15 8.29565 15.3161 9.05871 15.8787 9.62132C16.4413 10.1839 17.2044 10.5 18 10.5C18.7957 10.5 19.5587 10.1839 20.1213 9.62132C20.6839 9.05871 21 8.29565 21 7.5C21 6.70435 20.6839 5.94129 20.1213 5.37868C19.5587 4.81607 18.7957 4.5 18 4.5ZM12 7.5C12 5.9087 12.6321 4.38258 13.7574 3.25736C14.8826 2.13214 16.4087 1.5 18 1.5C19.5913 1.5 21.1174 2.13214 22.2426 3.25736C23.3679 4.38258 24 5.9087 24 7.5C24 9.0913 23.3679 10.6174 22.2426 11.7426C21.1174 12.8679 19.5913 13.5 18 13.5C16.4087 13.5 14.8826 12.8679 13.7574 11.7426C12.6321 10.6174 12 9.0913 12 7.5Z" fill="black"/>
</svg>
