<svg width="36" height="36" viewBox="0 0 36 36" fill="none" xmlns="http://www.w3.org/2000/svg">
<path fill-rule="evenodd" clip-rule="evenodd" d="M9.79502 11.205C10.0057 11.4159 10.124 11.7019 10.124 12C10.124 12.2981 10.0057 12.5841 9.79502 12.795L4.59002 18.0045L9.78602 23.205C9.89655 23.308 9.98521 23.4322 10.0467 23.5702C10.1082 23.7082 10.1412 23.8572 10.1439 24.0082C10.1466 24.1593 10.1188 24.3093 10.0622 24.4494C10.0056 24.5895 9.92141 24.7167 9.81458 24.8236C9.70775 24.9304 9.5805 25.0146 9.44042 25.0712C9.30034 25.1278 9.15029 25.1556 8.99924 25.1529C8.84818 25.1502 8.69921 25.1172 8.56121 25.0557C8.42322 24.9942 8.29902 24.9055 8.19602 24.795L2.20352 18.7995C1.99285 18.5886 1.87451 18.3026 1.87451 18.0045C1.87451 17.7064 1.99285 17.4204 2.20352 17.2095L8.20352 11.205C8.308 11.1005 8.43205 11.0175 8.56859 10.9609C8.70512 10.9044 8.85147 10.8752 8.99927 10.8752C9.14707 10.8752 9.29342 10.9044 9.42996 10.9609C9.5665 11.0175 9.69055 11.1005 9.79502 11.205ZM26.214 11.205C26.425 10.9943 26.7109 10.876 27.009 10.876C27.3071 10.876 27.5931 10.9943 27.804 11.205L33.795 17.2005C34.0057 17.4114 34.124 17.6974 34.124 17.9955C34.124 18.2936 34.0057 18.5796 33.795 18.7905L27.795 24.795C27.692 24.9055 27.5678 24.9942 27.4298 25.0557C27.2918 25.1172 27.1429 25.1502 26.9918 25.1529C26.8407 25.1556 26.6907 25.1278 26.5506 25.0712C26.4105 25.0146 26.2833 24.9304 26.1765 24.8236C26.0696 24.7167 25.9854 24.5895 25.9288 24.4494C25.8723 24.3093 25.8445 24.1593 25.8471 24.0082C25.8498 23.8572 25.8829 23.7082 25.9443 23.5702C26.0058 23.4322 26.0945 23.308 26.205 23.205L31.41 17.9955L26.214 12.795C26.0033 12.5841 25.885 12.2981 25.885 12C25.885 11.7019 26.0033 11.4159 26.214 11.205Z" fill="black"/>
<path fill-rule="evenodd" clip-rule="evenodd" d="M1.875 18C1.875 17.7016 1.99353 17.4155 2.2045 17.2045C2.41548 16.9935 2.70163 16.875 3 16.875H33C33.2984 16.875 33.5845 16.9935 33.7955 17.2045C34.0065 17.4155 34.125 17.7016 34.125 18C34.125 18.2984 34.0065 18.5845 33.7955 18.7955C33.5845 19.0065 33.2984 19.125 33 19.125H3C2.70163 19.125 2.41548 19.0065 2.2045 18.7955C1.99353 18.5845 1.875 18.2984 1.875 18Z" fill="black"/>
</svg>
