<svg width="435" height="80" viewBox="0 0 435 80" fill="none" xmlns="http://www.w3.org/2000/svg">
<path d="M121.14 18.5631V26.584H101.904V36.3591H121.14V44.3791H101.904V62.3308H91V18.5631H121.14Z" fill="#218455"></path>
<path d="M158.814 21.3832V29.9369C153.007 27.3261 148.381 26.0202 144.935 26.0193C143.315 25.9428 141.702 26.2831 140.251 27.0077C139.744 27.2361 139.312 27.6027 139.005 28.0656C138.698 28.5284 138.527 29.0686 138.513 29.624C138.538 30.0875 138.663 30.5401 138.88 30.9509C139.096 31.3616 139.398 31.7207 139.766 32.0037C140.601 32.7553 142.637 33.7266 145.875 34.9176C148.533 35.8592 151.128 36.9684 153.645 38.2385C155.621 39.2897 157.338 40.7662 158.673 42.5617C160.142 44.6113 160.887 47.0921 160.788 49.612C160.851 51.478 160.463 53.3316 159.659 55.0164C158.854 56.7013 157.656 58.1678 156.166 59.2924C153.086 61.6942 149.029 62.8948 143.995 62.8943C138.456 62.8658 133.017 61.4092 128.205 58.6653V49.2368C130.639 50.9315 133.243 52.3691 135.975 53.5268C138.258 54.4307 140.694 54.8884 143.149 54.8752C147.431 54.8752 149.572 53.5287 149.573 50.8357C149.551 50.3367 149.426 49.8476 149.204 49.3999C148.983 48.9522 148.67 48.5557 148.287 48.236C147.428 47.4221 145.365 46.4309 142.097 45.2625C139.438 44.3519 136.842 43.2637 134.329 42.0053C132.376 40.966 130.684 39.4979 129.38 37.7112C127.921 35.622 127.189 33.1113 127.296 30.5654C127.257 28.7933 127.65 27.0382 128.441 25.4522C129.233 23.8662 130.4 22.4971 131.84 21.4637C134.869 19.1532 138.92 17.9987 143.995 18.0001C149.115 18.0984 154.159 19.25 158.814 21.3833" fill="#218455"></path>
<path d="M196.926 21.3832V29.9369C191.119 27.3261 186.493 26.0202 183.047 26.0193C181.427 25.9428 179.814 26.2831 178.363 27.0077C177.856 27.2361 177.425 27.6027 177.117 28.0656C176.81 28.5284 176.64 29.0686 176.626 29.624C176.651 30.0875 176.776 30.5401 176.992 30.9509C177.208 31.3616 177.51 31.7207 177.878 32.0037C178.713 32.7553 180.749 33.7266 183.987 34.9176C186.645 35.8592 189.24 36.9684 191.757 38.2385C193.733 39.2897 195.45 40.7663 196.785 42.5617C198.254 44.6113 198.999 47.0921 198.9 49.612C198.963 51.478 198.576 53.3316 197.771 55.0164C196.967 56.7013 195.769 58.1678 194.278 59.2924C191.198 61.6942 187.141 62.8948 182.107 62.8943C176.568 62.8658 171.129 61.4092 166.317 58.6653V49.2368C168.752 50.9315 171.355 52.3691 174.087 53.5268C176.37 54.4307 178.806 54.8884 181.262 54.8752C185.543 54.8752 187.684 53.5287 187.685 50.8357C187.664 50.3367 187.538 49.8476 187.317 49.3999C187.095 48.9522 186.783 48.5557 186.399 48.236C185.54 47.4221 183.477 46.4309 180.21 45.2625C177.55 44.3519 174.955 43.2637 172.441 42.0053C170.488 40.966 168.796 39.4979 167.492 37.7112C166.033 35.622 165.301 33.1113 165.409 30.5654C165.369 28.7933 165.762 27.0382 166.554 25.4522C167.345 23.8662 168.512 22.4971 169.952 21.4637C172.981 19.1532 177.033 17.9987 182.107 18.0001C187.227 18.0985 192.271 19.2502 196.926 21.3833" fill="#218455"></path>
<path d="M246.13 48.9848V58.5407C240.846 61.3958 234.936 62.892 228.93 62.8944C221.161 62.8944 214.974 60.7487 210.368 56.4573C208.158 54.4197 206.401 51.9404 205.211 49.1801C204.021 46.4199 203.425 43.4403 203.46 40.4347C203.496 37.4291 204.162 34.4644 205.417 31.733C206.672 29.0017 208.487 26.5645 210.744 24.5797C215.6 20.1928 221.944 17.9996 229.776 18C236.022 18 241.306 19.2846 245.629 21.8539V31.5953C240.323 28.6107 235.3 27.118 230.559 27.117C225.901 27.117 222.095 28.3648 219.142 30.8602C217.722 32.0059 216.585 33.4615 215.816 35.1154C215.047 36.7693 214.667 38.5774 214.706 40.4008C214.666 42.2294 215.038 44.0435 215.795 45.7086C216.552 47.3737 217.674 48.8469 219.078 50.0189C221.99 52.5453 225.723 53.8087 230.277 53.8092C232.48 53.8161 234.674 53.516 236.794 52.9176C240.006 51.8574 243.128 50.5422 246.13 48.9848" fill="#218455"></path>
<path d="M291.041 56.63C291.267 56.6257 291.491 56.6664 291.701 56.7498C291.911 56.8333 292.102 56.9577 292.263 57.1159C292.428 57.276 292.558 57.4687 292.644 57.6818C292.731 57.895 292.771 58.1237 292.764 58.3536V59.4804C292.766 59.7071 292.722 59.932 292.636 60.1418C292.55 60.3517 292.423 60.5423 292.263 60.7027C292.103 60.863 291.912 60.9899 291.702 61.076C291.492 61.162 291.267 61.2054 291.041 61.2038H264.692C264.466 61.2082 264.241 61.1645 264.033 61.0755C263.825 60.9865 263.638 60.8542 263.485 60.6875C263.167 60.3548 262.993 59.9101 263 59.4499C263.014 58.5003 263.13 57.555 263.345 56.63C263.55 55.7623 263.855 54.9211 264.253 54.1231C264.667 53.4083 265.122 52.7182 265.617 52.0563C266.156 51.3352 266.748 50.6547 267.387 50.02C268.056 49.3513 268.745 48.7247 269.454 48.1401C270.164 47.5546 270.884 46.9907 271.615 46.4485C272.346 45.9266 273.082 45.4042 273.824 44.8814C274.565 44.3596 275.301 43.8585 276.033 43.3781C277.558 42.3745 278.972 41.346 280.278 40.2926C281.585 39.2377 282.833 38.1459 284.022 37.0172C284.966 36.0983 285.736 35.0158 286.294 33.8223C286.807 32.6886 287.089 31.4642 287.124 30.2204C287.125 29.0922 286.906 27.9748 286.481 26.9299C286.102 26.0072 285.506 25.1901 284.742 24.5488C282.77 23.1507 280.391 22.4453 277.976 22.543C276.465 22.5332 274.965 22.788 273.543 23.2961C272.379 23.7062 271.346 24.4197 270.55 25.3628C268.911 27.6472 268.094 30.419 268.232 33.2271C268.236 33.4504 268.196 33.6723 268.112 33.8795C268.029 34.0867 267.905 34.275 267.747 34.433C267.589 34.591 267.401 34.7154 267.194 34.7989C266.986 34.8823 266.765 34.9231 266.541 34.9187H265.349C265.126 34.923 264.904 34.8821 264.697 34.7986C264.49 34.7152 264.302 34.5907 264.144 34.4328C263.986 34.2748 263.861 34.0866 263.778 33.8795C263.694 33.6723 263.654 33.4504 263.658 33.2271C263.72 23.202 268.493 18.1266 277.976 18.0011C279.748 17.9823 281.513 18.2358 283.208 18.7527C284.77 19.2412 286.241 19.9819 287.563 20.9455C290.278 23.076 291.656 26.1884 291.698 30.2827C291.661 32.0387 291.272 33.7694 290.555 35.3727C289.825 37.0065 288.824 38.5051 287.595 39.8052C286.346 41.0925 285.034 42.3164 283.662 43.4723C282.248 44.6654 280.757 45.7641 279.198 46.7614H279.228C276.43 48.6113 273.732 50.6089 271.145 52.7457H271.177C269.863 53.789 268.803 55.1172 268.076 56.63H291.041Z" fill="#87888A"></path>
<path d="M326.083 56.63C326.309 56.6257 326.533 56.6664 326.743 56.7498C326.953 56.8333 327.144 56.9577 327.306 57.1159C327.471 57.276 327.6 57.4687 327.687 57.6818C327.773 57.895 327.814 58.1237 327.807 58.3536V59.4804C327.808 59.7071 327.765 59.932 327.679 60.1418C327.593 60.3517 327.466 60.5423 327.305 60.7027C327.145 60.863 326.954 60.9899 326.745 61.076C326.535 61.162 326.31 61.2054 326.083 61.2038H299.734C299.508 61.2082 299.283 61.1645 299.075 61.0755C298.867 60.9865 298.68 60.8542 298.527 60.6875C298.209 60.3548 298.035 59.9101 298.043 59.4499C298.057 58.5003 298.172 57.555 298.387 56.63C298.593 55.7623 298.898 54.9211 299.296 54.1231C299.71 53.4083 300.165 52.7182 300.659 52.0563C301.199 51.3352 301.79 50.6547 302.43 50.02C303.098 49.3513 303.787 48.7247 304.496 48.1401C305.207 47.5546 305.927 46.9907 306.657 46.4485C307.388 45.9266 308.125 45.4042 308.867 44.8814C309.607 44.3596 310.344 43.8585 311.076 43.3781C312.6 42.3745 314.015 41.346 315.32 40.2926C316.627 39.2377 317.875 38.1459 319.065 37.0172C320.009 36.0983 320.778 35.0158 321.336 33.8223C321.849 32.6886 322.132 31.4642 322.167 30.2204C322.167 29.0922 321.949 27.9748 321.523 26.9299C321.145 26.0072 320.548 25.1901 319.785 24.5488C317.813 23.1507 315.433 22.4453 313.018 22.543C311.508 22.5332 310.008 22.788 308.586 23.2961C307.422 23.7062 306.389 24.4197 305.593 25.3628C303.955 27.6475 303.137 30.4191 303.274 33.2271C303.279 33.4504 303.238 33.6723 303.155 33.8795C303.071 34.0867 302.947 34.275 302.789 34.433C302.631 34.591 302.443 34.7154 302.236 34.7989C302.029 34.8823 301.807 34.9231 301.584 34.9187H300.392C300.169 34.923 299.947 34.8821 299.74 34.7986C299.532 34.7152 299.344 34.5907 299.186 34.4328C299.028 34.2748 298.904 34.0866 298.82 33.8795C298.737 33.6723 298.696 33.4504 298.7 33.2271C298.763 23.202 303.535 18.1266 313.018 18.0011C314.791 17.9823 316.555 18.2358 318.251 18.7527C319.812 19.2412 321.284 19.9819 322.606 20.9455C325.32 23.076 326.699 26.1884 326.741 30.2827C326.703 32.0387 326.315 33.7694 325.597 35.3727C324.868 37.0065 323.867 38.5051 322.638 39.8052C321.389 41.0925 320.076 42.3164 318.705 43.4723C317.291 44.6654 315.799 45.7641 314.24 46.7614H314.271C311.472 48.6113 308.774 50.6089 306.188 52.7457H306.22C304.905 53.789 303.845 55.1172 303.119 56.63H326.083Z" fill="#87888A"></path>
<path d="M364.072 39.9625C364.108 42.5651 363.834 45.1627 363.257 47.7008C362.717 50.0599 361.864 52.336 360.72 54.4686C359.541 56.7311 357.742 58.611 355.534 59.8882C353.089 61.2249 350.348 61.9252 347.562 61.9246C344.811 61.9197 342.106 61.2192 339.699 59.8882C337.503 58.6143 335.71 56.7463 334.529 54.4991C333.364 52.353 332.489 50.0618 331.927 47.6855C331.332 45.1553 331.048 42.5616 331.083 39.9625C331.048 37.3478 331.332 34.7385 331.927 32.1924C332.492 29.8019 333.366 27.4955 334.529 25.3318C335.707 23.0902 337.501 21.2316 339.699 19.9746C342.112 18.6646 344.816 17.9855 347.562 18.0005C350.338 17.9789 353.075 18.6578 355.519 19.9746C357.715 21.231 359.516 23.076 360.72 25.3014C361.862 27.4727 362.715 29.7842 363.257 32.1772C363.832 34.7315 364.106 37.3444 364.072 39.9625M359.529 39.9625C359.525 38.9003 359.468 37.8391 359.357 36.7827C359.241 35.6657 359.1 34.5845 358.934 33.5394C358.732 32.542 358.465 31.5589 358.135 30.5963C357.819 29.6721 357.415 28.7802 356.929 27.933C355.173 24.4431 352.04 22.6467 347.53 22.5439C345.54 22.5028 343.577 23.0125 341.858 24.0167H341.89C341.148 24.5111 340.465 25.0889 339.854 25.7388C339.23 26.411 338.694 27.1588 338.257 27.9647C337.769 28.7923 337.37 29.6688 337.066 30.5797C336.742 31.5547 336.501 32.5555 336.346 33.5712C335.427 37.7195 335.427 42.0188 336.346 46.167C336.505 47.178 336.751 48.1733 337.081 49.1418C337.405 50.0832 337.809 50.9951 338.288 51.8675C339.099 53.4662 340.334 54.8106 341.858 55.7533C342.638 56.2986 343.509 56.7016 344.429 56.9438C345.453 57.2038 346.506 57.33 347.562 57.3189C348.633 57.3302 349.702 57.2042 350.742 56.9438C351.65 56.712 352.506 56.3078 353.262 55.7533C354.031 55.2929 354.732 54.7288 355.347 54.0769C355.964 53.4087 356.495 52.6666 356.929 51.8676C357.432 51.0049 357.842 50.0912 358.152 49.1419C358.468 48.1657 358.729 47.1725 358.934 46.167C359.1 45.1219 359.241 44.0772 359.357 43.0329C359.47 42.0133 359.527 40.9883 359.529 39.9625" fill="#87888A"></path>
<path d="M399.115 39.9625C399.149 42.5651 398.876 45.1626 398.3 47.7008C397.76 50.0599 396.906 52.336 395.762 54.4686C394.583 56.7311 392.785 58.611 390.576 59.8882C388.132 61.2249 385.39 61.9252 382.604 61.9246C379.854 61.9197 377.149 61.2192 374.741 59.8882C372.545 58.6143 370.753 56.7463 369.571 54.4991C368.406 52.353 367.532 50.0618 366.97 47.6855C366.374 45.1553 366.091 42.5616 366.126 39.9625C366.091 37.3478 366.374 34.7385 366.97 32.1924C367.534 29.8019 368.409 27.4955 369.571 25.3318C370.749 23.0902 372.543 21.2316 374.741 19.9746C377.154 18.6646 379.859 17.9855 382.604 18.0005C385.38 17.9789 388.117 18.6578 390.561 19.9746C392.757 21.231 394.559 23.076 395.762 25.3014C396.905 27.4727 397.758 29.7842 398.3 32.1772C398.874 34.7316 399.148 37.3445 399.115 39.9625M394.572 39.9625C394.568 38.9003 394.511 37.8391 394.4 36.7827C394.284 35.6657 394.142 34.5845 393.976 33.5394C393.774 32.542 393.508 31.5589 393.178 30.5963C392.862 29.6721 392.458 28.7802 391.972 27.933C390.215 24.4431 387.082 22.6467 382.572 22.5439C380.582 22.5028 378.62 23.0125 376.901 24.0167H376.933C376.19 24.5111 375.507 25.0889 374.896 25.7388C374.273 26.411 373.736 27.1588 373.299 27.9647C372.812 28.7923 372.413 29.6688 372.108 30.5797C371.784 31.5547 371.543 32.5555 371.389 33.5712C370.469 37.7195 370.469 42.0188 371.389 46.167C371.547 47.178 371.793 48.1733 372.124 49.1418C372.448 50.0832 372.851 50.9951 373.331 51.8675C374.141 53.4662 375.377 54.8106 376.901 55.7533C377.681 56.2986 378.551 56.7016 379.472 56.9438C380.495 57.2038 381.548 57.33 382.604 57.3189C383.676 57.3302 384.744 57.2042 385.784 56.9438C386.693 56.712 387.549 56.3078 388.305 55.7533C389.073 55.2929 389.775 54.7288 390.39 54.0769C391.006 53.4087 391.538 52.6666 391.972 51.8676C392.475 51.0049 392.884 50.0912 393.194 49.1419C393.51 48.1657 393.772 47.1725 393.976 46.167C394.142 45.1219 394.284 44.0772 394.4 43.0329C394.513 42.0133 394.57 40.9883 394.572 39.9625" fill="#87888A"></path>
<path d="M434.157 39.9625C434.193 42.5651 433.919 45.1627 433.342 47.7008C432.802 50.0599 431.949 52.336 430.804 54.4686C429.626 56.7311 427.827 58.611 425.619 59.8882C423.174 61.2249 420.433 61.9252 417.647 61.9246C414.896 61.9197 412.191 61.2192 409.784 59.8882C407.587 58.6143 405.795 56.7463 404.613 54.4991C403.449 52.353 402.574 50.0618 402.012 47.6855C401.417 45.1553 401.133 42.5616 401.168 39.9625C401.133 37.3478 401.417 34.7385 402.012 32.1924C402.576 29.8019 403.451 27.4955 404.613 25.3318C405.792 23.0902 407.585 21.2316 409.784 19.9746C412.197 18.6646 414.901 17.9855 417.647 18.0005C420.423 17.9789 423.16 18.6578 425.604 19.9746C427.8 21.231 429.601 23.076 430.804 25.3014C431.947 27.4727 432.8 29.7842 433.342 32.1772C433.917 34.7315 434.191 37.3444 434.157 39.9625M429.614 39.9625C429.61 38.9003 429.553 37.8391 429.442 36.7827C429.326 35.6657 429.185 34.5845 429.019 33.5394C428.817 32.542 428.55 31.5589 428.22 30.5963C427.904 29.6721 427.5 28.7802 427.014 27.933C425.258 24.4431 422.124 22.6467 417.615 22.5439C415.625 22.5028 413.662 23.0125 411.943 24.0167H411.975C411.233 24.5111 410.55 25.0889 409.939 25.7388C409.315 26.411 408.779 27.1588 408.341 27.9647C407.854 28.7923 407.455 29.6688 407.151 30.5797C406.827 31.5547 406.586 32.5555 406.431 33.5712C405.512 37.7195 405.512 42.0188 406.431 46.167C406.59 47.178 406.836 48.1733 407.166 49.1418C407.49 50.0832 407.894 50.9951 408.373 51.8675C409.184 53.4662 410.419 54.8106 411.943 55.7533C412.723 56.2986 413.594 56.7016 414.514 56.9438C415.538 57.2038 416.591 57.33 417.647 57.3189C418.718 57.3302 419.787 57.2042 420.826 56.9438C421.735 56.712 422.591 56.3078 423.347 55.7533C424.116 55.2929 424.817 54.7288 425.432 54.0769C426.049 53.4087 426.58 52.6666 427.014 51.8676C427.517 51.0049 427.927 50.0912 428.237 49.1419C428.553 48.1657 428.814 47.1725 429.019 46.167C429.185 45.1219 429.326 44.0772 429.442 43.0329C429.555 42.0133 429.612 40.9883 429.614 39.9625" fill="#87888A"></path>
<path d="M66.112 11.8008C53.2629 -1.34581 33.6058 -3.66873 17.8593 5.64076C-0.518677 16.5075 -5.07441 40.9889 5.87682 58.6249C6.13429 59.0401 7.50615 58.6415 7.34555 58.1127C5.57291 52.478 5.12887 46.5093 6.04822 40.6743C6.96757 34.8393 9.22534 29.2964 12.6447 24.4797C15.1984 20.1767 18.599 16.4368 22.6405 13.4865C26.682 10.5363 31.2803 8.43709 36.1569 7.31614C41.0335 6.19519 46.0869 6.07579 51.011 6.96517C55.9351 7.85454 60.6275 9.7342 64.8038 12.4903C65.1541 12.7173 66.5619 12.2618 66.112 11.8008" fill="#218455"></path>
<path d="M67.8695 6.44487C62.1841 3.03954 54.6272 4.25217 48.6637 6.05175C48.6221 6.06425 48.5931 6.08089 48.5557 6.09466C48.5252 6.10302 48.492 6.10575 48.4629 6.11545C34.1645 11.0948 17.9599 24.7565 19.185 41.3791C19.2182 41.8319 20.6011 41.4069 20.7077 41.0636C24.0591 30.241 32.7068 21.9325 42.534 16.7538C52.4068 11.5502 69.6455 9.94162 72.0874 24.1585C72.1663 24.6125 73.523 24.2042 73.6088 23.8415C75.2312 16.9989 74.3023 10.2974 67.8695 6.4449" fill="#AECCBA"></path>
<path d="M68.3147 25.9617C67.2391 24.6923 66.9207 24.3297 65.7828 23.1253C65.4118 22.7322 64.0289 23.0893 64.4096 23.7219C67.8871 29.4017 69.5695 35.9988 69.2368 42.6503C68.9041 49.3019 66.5718 55.6981 62.5449 61.0026C57.5974 67.65 49.8439 71.6866 41.7887 72.9892C33.2724 74.3652 24.9611 71.1246 17.4125 67.5393C16.9377 67.3136 15.7029 67.6943 16.2718 68.3324C27.6439 81.0708 47.7453 84.2103 61.7282 73.5858C65.3199 70.9158 68.3438 67.5572 70.6236 63.7059C72.9033 59.8547 74.3933 55.5879 75.0064 51.1547C75.6195 46.7215 75.3436 42.2105 74.1946 37.8851C73.0457 33.5597 71.0469 29.5063 68.3147 25.9617" fill="#87888A"></path>
<path d="M59.0015 39.0641C58.9157 38.5879 57.5355 38.7638 57.4511 39.186C55.7705 47.7257 50.5697 54.8286 44.105 60.4669C35.7508 67.7511 16.909 74.757 12.5484 59.9561C12.3948 59.4314 11.0479 59.6709 10.9842 60.1747C9.08494 75.3066 22.2427 78.9612 34.2599 74.6242C47.001 70.0255 59.2271 56.4081 59.4265 42.4571C59.41 41.3139 59.2675 40.176 59.0015 39.0641" fill="#C7C7C8"></path>
</svg>