<svg xmlns="http://www.w3.org/2000/svg" width="103" height="52" viewBox="0 0 103 52" fill="none"><script xmlns=""/> <path d="M12.2921 16.9015C5.2382 16.2044 -0.642847 22.0831 0.0565979 29.1394C0.572855 34.359 4.79569 38.5819 10.0154 39.0981C17.0693 39.7976 22.9503 33.9165 22.2509 26.8626C21.7346 21.6429 17.5118 17.4201 12.2921 16.9038V16.9015ZM17.055 28.7754C16.7196 31.4233 14.5784 33.5644 11.9305 33.8999C8.04312 34.3947 4.76001 31.1116 5.25485 27.2242C5.59268 24.5739 7.73146 22.4352 10.3794 22.0997C14.2644 21.6049 17.5499 24.888 17.055 28.7754Z" fill="white"/> <path d="M42.718 33.4502H33.8679L45.1637 18.5478C45.5372 18.0529 45.1851 17.344 44.5665 17.344H28.239C26.626 17.344 25.3556 18.8119 25.691 20.4843C25.9361 21.7119 27.0875 22.5494 28.3365 22.5494H35.5998L24.2945 37.4637C23.9234 37.9538 24.2731 38.6556 24.8869 38.6556H42.6204C43.8718 38.6556 45.0209 37.8182 45.266 36.5906C45.6014 34.9181 44.331 33.4502 42.718 33.4502Z" fill="white"/> <path d="M99.097 17.4034C97.8885 17.658 97.0606 18.7809 97.0606 20.0157V28.6826L82.9741 17.5081C82.484 17.118 81.7608 17.4677 81.7608 18.0958V35.9911C81.7608 37.2258 82.5887 38.3487 83.7973 38.6033C85.4817 38.9578 86.9662 37.6826 86.9662 36.0601V27.3194L101.053 38.4938C101.543 38.884 102.268 38.5343 102.268 37.9062V19.9467C102.268 18.3241 100.784 17.049 99.0994 17.4034H99.097Z" fill="white"/> <path d="M62.4214 16.8467C53.7973 16.8467 46.8076 21.8404 46.8076 27.9974C46.8076 34.1544 53.7973 39.1481 62.4214 39.1481C71.0455 39.1481 78.0352 34.1544 78.0352 27.9974C78.0352 21.8404 71.0431 16.8467 62.4214 16.8467ZM62.4214 33.9451C56.4642 33.9451 52.013 30.8047 52.013 27.9974C52.013 25.1901 56.4642 22.0498 62.4214 22.0498C68.3786 22.0498 72.8298 25.1901 72.8298 27.9974C72.8298 30.8047 68.3786 33.9451 62.4214 33.9451Z" fill="white"/> <script xmlns=""/></svg>