<svg width="223" height="222" viewBox="0 0 223 222" fill="none" xmlns="http://www.w3.org/2000/svg">
<path d="M210.705 88.3063L211.144 90.7065L208.743 91.1453L208.305 88.7451L210.705 88.3063Z" fill="white"/>
<path d="M202.992 56.9631L203.95 58.8989L192.927 64.3561L194.746 68.0304L198.779 66.0339C204.138 63.3808 206.408 63.8638 207.677 66.4269L208.076 67.2335L206.338 68.0942L206.169 67.7536C205.468 66.3377 204.066 65.7597 199.442 68.049L193.939 70.7732L190.23 63.281L202.992 56.9631Z" fill="white"/>
<path d="M189.572 38.9548L190.905 40.654L182.771 47.0375L194.844 45.6731L196.054 47.215L184.852 56.0061L183.518 54.3069L191.637 47.9358L179.592 49.3035L178.369 47.7459L189.572 38.9548Z" fill="white"/>
<path d="M170.684 28.0421C172.886 26.2113 175.406 26.2982 177.391 27.9768C178.583 28.9839 179.163 30.1557 179.272 31.4522C179.422 33.4123 178.551 34.5355 176.627 36.8113C174.703 39.0871 173.741 40.1328 171.783 40.311C170.487 40.4197 169.235 40.0421 168.043 39.035C166.042 37.3435 165.553 34.8868 166.991 32.4104L168.671 33.8307C167.973 35.1523 168.076 36.5487 169.283 37.5687C169.94 38.1239 170.696 38.3443 171.455 38.2524C172.495 38.1368 173.157 37.5704 174.978 35.4168C176.798 33.2632 177.247 32.5161 177.187 31.4708C177.152 30.7075 176.809 29.9983 176.152 29.443C174.945 28.423 173.536 28.5411 172.334 29.4366L170.684 28.0421Z" fill="white"/>
<path d="M150.152 25.5199L153.57 27.4386L159.591 16.7127L161.474 17.77L155.454 28.4959L158.872 30.4146L157.923 32.1063L149.202 27.2116L150.152 25.5199Z" fill="white"/>
<path d="M136.455 7.92389L138.599 8.63772L138.645 11.6671L143.977 13.4423L145.829 11.0445L147.992 11.7647L138.542 23.6269L136.891 23.0773L136.455 7.92389ZM138.614 13.5961L138.686 20.2812L142.808 14.9922L138.614 13.5961Z" fill="white"/>
<path d="M115.779 23.0777C116.114 21.1237 117.548 20.5908 119.157 20.7839C120.765 20.977 122.032 21.8341 121.895 23.8119L120.287 23.6188C120.317 22.6959 119.833 22.1946 118.999 22.0945C118.165 21.9944 117.577 22.3669 117.388 23.2708L115.779 23.0777ZM115.751 5.18689L117.896 5.44434L116.664 15.7106L124.231 6.20477L126.177 6.43839L124.479 20.5768L122.335 20.3194L123.565 10.073L116.02 19.5613L114.054 19.3254L115.751 5.18689Z" fill="white"/>
<path d="M95.6121 18.8549L99.518 18.5227L98.4756 6.26698L100.628 6.08392L101.67 18.3397L105.576 18.0074L105.74 19.9405L95.7765 20.7879L95.6121 18.8549Z" fill="white"/>
<path d="M75.2788 11.695L84.063 9.24292L87.8917 22.9585L79.1075 25.4106L78.5859 23.5421L85.2896 21.6707L84.1711 17.6639L78.4691 19.2556L77.9529 17.4063L83.6549 15.8146L82.5041 11.6922L75.8004 13.5636L75.2788 11.695Z" fill="white"/>
<path d="M58.4239 34.6982L56.6582 32.0535C55.1479 29.7913 54.0648 27.5566 53.8359 25.3046L49.378 28.2808L55.1304 36.897L58.4239 34.6982ZM61.2309 35.1568L54.4111 39.7098L47.5816 29.4801L46.1843 30.4129L43.3304 26.138L45.0936 24.9609L46.8703 27.6223L54.0561 22.825L52.2793 20.1636L54.0259 18.9976L56.8798 23.2724L55.8485 23.9609C55.8833 26.2463 57.0222 28.8526 58.8989 31.6637L61.2309 35.1568Z" fill="white"/>
<path d="M30.2018 43.704L31.7882 42.0944L34.5271 43.3898L38.4721 39.3871L37.1371 36.6672L38.7375 35.0434L45.2154 48.757L43.994 49.9962L30.2018 43.704ZM36.2447 44.2683L42.2763 47.1519L39.3474 41.1202L36.2447 44.2683Z" fill="white"/>
<path d="M19.2014 60.095L20.3875 58.2898L30.667 65.0442L32.9185 61.6177L29.1577 59.1466C24.16 55.8628 23.4297 53.6599 25.0003 51.2697L25.4945 50.5175L27.1158 51.5828L26.9071 51.9004C26.0395 53.2209 26.2492 54.7228 30.5616 57.5563L35.693 60.928L31.1022 67.9147L19.2014 60.095Z" fill="white"/>
<path d="M14.7503 81.6005C12.3743 80.6475 11.4184 78.3031 12.4235 75.7972L14.4561 70.7296L27.6726 76.0308L26.8685 78.0355L21.671 75.9508L20.4425 79.0136C19.4299 81.5381 17.1263 82.5535 14.7503 81.6005ZM15.5619 79.5772C16.9169 80.1207 18.1207 79.5908 18.7089 78.1244L19.8704 75.2286L15.4525 73.4566L14.2911 76.3524C13.7029 77.8188 14.1882 79.0263 15.5619 79.5772Z" fill="white"/>
<path d="M6.01672 106.172L8.43163 90.2136L22.5114 92.3442L22.1882 94.4799L10.0267 92.6396L9.30543 97.4053L21.467 99.2457L21.1408 101.401L8.97925 99.5608L8.26106 104.307L20.4227 106.147L20.0965 108.303L6.01672 106.172Z" fill="white"/>
<path d="M7.52976 128.024L6.79187 118.934L20.9851 117.782L21.723 126.872L19.7894 127.029L19.2263 120.092L15.0799 120.429L15.5589 126.329L13.6452 126.484L13.1662 120.584L8.90027 120.93L9.4634 127.867L7.52976 128.024Z" fill="white"/>
<path d="M18.6622 150.324L17.8136 148.036L20.1013 147.188L20.9499 149.475L18.6622 150.324Z" fill="white"/>
<path d="M31.3109 179.436L30.0403 177.689L39.987 170.453L37.5752 167.138L33.9362 169.785C29.1003 173.303 26.7814 173.209 25.099 170.896L24.5696 170.168L26.1384 169.027L26.3619 169.334C27.2914 170.612 28.7706 170.946 32.9434 167.91L37.9087 164.298L42.8265 171.059L31.3109 179.436Z" fill="white"/>
<path d="M47.5288 194.935L45.9257 193.488L52.8559 185.814L41.1908 189.212L39.7362 187.898L49.2803 177.33L50.8834 178.777L43.9666 186.436L55.6034 183.04L57.0729 184.367L47.5288 194.935Z" fill="white"/>
<path d="M68.0382 202.601C66.1814 204.781 63.6845 205.127 61.441 203.812C60.095 203.024 59.3224 201.969 58.9936 200.71C58.5105 198.804 59.1764 197.549 60.6827 194.977C62.1889 192.406 62.9584 191.211 64.8568 190.701C66.1156 190.372 67.4139 190.53 68.7599 191.318C71.0206 192.643 71.9233 194.979 70.9294 197.665L69.0311 196.553C69.4929 195.132 69.1528 193.774 67.7895 192.975C67.0474 192.54 66.2644 192.452 65.5327 192.673C64.5273 192.965 63.9718 193.636 62.5464 196.069C61.1211 198.502 60.8072 199.315 61.0443 200.335C61.2099 201.081 61.6694 201.721 62.4115 202.156C63.7748 202.954 65.1431 202.597 66.1744 201.509L68.0382 202.601Z" fill="white"/>
<path d="M88.6115 201.619L84.9162 200.311L80.8122 211.906L78.7759 211.186L82.88 199.591L79.1846 198.283L79.8319 196.454L89.2588 199.79L88.6115 201.619Z" fill="white"/>
<path d="M105.078 216.671L102.843 216.333L102.283 213.355L96.7259 212.514L95.3092 215.193L93.0549 214.851L100.347 201.553L102.067 201.813L105.078 216.671ZM101.984 211.449L100.775 204.874L97.6142 210.788L101.984 211.449Z" fill="white"/>
<path d="M123.616 198.22C123.631 200.203 122.314 200.98 120.696 201.074C119.079 201.168 117.681 200.547 117.467 198.577L119.084 198.483C119.217 199.397 119.782 199.805 120.62 199.756C121.459 199.708 121.972 199.237 121.999 198.314L123.616 198.22ZM126.8 215.826L124.644 215.95L124.046 205.628L118.274 216.32L116.318 216.433L115.494 202.217L117.65 202.092L118.247 212.395L124 201.724L125.976 201.609L126.8 215.826Z" fill="white"/>
<path d="M143.875 199.015L140.084 200.012L143.211 211.908L141.122 212.457L137.995 200.561L134.204 201.558L133.71 199.681L143.382 197.139L143.875 199.015Z" fill="white"/>
<path d="M164.755 202.754L156.523 206.679L150.395 193.825L158.628 189.9L159.462 191.652L153.18 194.647L154.97 198.402L160.314 195.854L161.14 197.587L155.796 200.135L157.638 203.998L163.921 201.003L164.755 202.754Z" fill="white"/>
<path d="M177.494 177.337L179.684 179.642C181.558 181.613 183.006 183.631 183.616 185.811L187.501 182.118L180.364 174.609L177.494 177.337ZM174.649 177.363L180.593 171.714L189.067 180.63L190.284 179.473L193.825 183.199L192.289 184.659L190.084 182.34L183.821 188.292L186.026 190.611L184.504 192.058L180.963 188.332L181.862 187.478C181.438 185.232 179.871 182.858 177.543 180.408L174.649 177.363Z" fill="white"/>
<path d="M203.955 163.563L202.666 165.419L199.747 164.609L196.541 169.226L198.32 171.678L197.019 173.551L188.3 161.141L189.293 159.712L203.955 163.563ZM197.904 164.036L191.47 162.222L195.383 167.667L197.904 164.036Z" fill="white"/>
<path d="M212.085 145.412L211.229 147.395L199.936 142.519L198.311 146.284L202.442 148.067C207.933 150.438 209.033 152.481 207.899 155.107L207.542 155.933L205.761 155.164L205.912 154.816C206.538 153.365 206.072 151.922 201.335 149.876L195.698 147.442L199.012 139.767L212.085 145.412Z" fill="white"/>
<path d="M212.802 123.435C215.307 123.962 216.654 126.106 216.098 128.748L214.973 134.091L201.038 131.156L201.484 129.042L206.963 130.196L207.643 126.967C208.204 124.306 210.297 122.907 212.802 123.435ZM212.353 125.568C210.924 125.267 209.83 125.997 209.505 127.543L208.862 130.596L213.52 131.577L214.163 128.524C214.488 126.978 213.801 125.873 212.353 125.568Z" fill="white"/>
</svg>
