<svg width="92" height="25" viewBox="0 0 92 25" fill="none" xmlns="http://www.w3.org/2000/svg">
<g clip-path="url(#clip0_51_2677)">
<path d="M85.3708 10.7828C85.3708 10.2241 86.1464 9.77352 87.1626 9.77352C88.2226 9.77352 89.3045 10.2676 90.0363 11.0728L91.3587 9.48386C90.102 8.38814 88.8234 7.81917 87.2283 7.81917C85.2394 7.81917 83.1856 8.72124 83.1856 10.7828C83.1856 13.3172 85.4142 13.4997 87.2283 13.6503C88.2445 13.7248 89.1406 13.8006 89.1406 14.4556C89.1406 15.164 88.1135 15.4859 87.2064 15.4859C86.1574 15.4859 85.0212 15.0461 84.1908 14.0687L82.7811 15.5401C83.9064 16.8932 85.5347 17.4837 87.1297 17.4837C89.1296 17.4837 91.3259 16.5494 91.3259 14.4126C91.3259 11.996 89.0749 11.7601 87.3484 11.5884C86.2665 11.4808 85.3708 11.3844 85.3708 10.7828ZM75.3183 11.3844C75.6789 10.4931 76.4545 9.97752 77.6017 9.97752C78.7599 9.97752 79.4483 10.525 79.7436 11.3844H75.3183ZM77.7113 7.81917C74.9796 7.81917 72.7829 9.91297 72.7829 12.6622C72.7829 15.2501 74.7281 17.4837 77.5908 17.4837C79.3172 17.4837 80.7159 16.6673 81.7102 15.2716L80.2024 14.0153C79.6669 14.8206 78.7055 15.2931 77.5579 15.2931C76.3888 15.2931 75.1759 14.4341 75.0777 13.1666H82.2128V12.4152C82.1909 9.76276 80.3553 7.81917 77.7113 7.81917ZM49.7603 7.81917C47.0287 7.81917 44.8324 9.91297 44.8324 12.6622C44.8324 15.2501 46.7776 17.4837 49.6403 17.4837C51.3667 17.4837 52.7655 16.6673 53.7597 15.2716L52.2519 14.0153C51.7164 14.8206 50.755 15.2931 49.6074 15.2931C48.4383 15.2931 47.2254 14.4341 47.1272 13.1666H54.2623V12.4152C54.2514 9.76276 52.4048 7.81917 49.7603 7.81917ZM69.4833 17.1506H71.6686V8.15186H69.4833V17.151V17.1506ZM70.5758 3.77062C69.691 3.77062 68.9369 4.50097 68.9369 5.41338C68.9369 6.31545 69.6691 6.98166 70.6196 6.98166C71.5485 6.98166 72.226 6.33738 72.226 5.44607C72.215 4.53324 71.4718 3.77062 70.5758 3.77062ZM38.8993 7.80842C37.8722 7.80842 36.9437 8.10924 36.1567 8.63517V3.87821H33.9714V12.6622C33.9714 15.3357 36.1895 17.4837 38.8884 17.4837C41.6091 17.4837 43.8382 15.3469 43.8382 12.6407C43.8272 9.94524 41.642 7.80842 38.8993 7.80842ZM27.5357 7.95862C25.0989 8.20566 23.11 10.2676 23.11 12.7268C23.11 15.3254 25.3723 17.5052 28.0164 17.5052C30.6495 17.5052 32.9224 15.3254 32.9224 12.7268C32.9224 11.6207 32.518 10.6003 31.8624 9.79504L27.0112 3.88897H24.1809L27.5357 7.95862ZM10.5992 13.2742L8.59928 8.15186H7.07039L5.05954 13.2742L3.04912 8.15186H0.666687L4.18493 17.1726H5.71466L7.82367 11.8032L9.95459 17.1721H11.4839L14.9916 8.15186H12.6205L10.5992 13.2742ZM57.5948 10.203V8.15186H55.4095V17.151H57.5948V13.3499C57.5948 11.5028 59.6056 10.3752 61.6051 10.3752V8.15228H61.3864C59.6928 8.15228 58.469 8.75393 57.5948 10.2035V10.203ZM64.5335 10.203V8.15186H62.3483V17.151H64.5335V13.3499C64.5335 11.5028 66.5439 10.3752 68.5434 10.3752V8.15228H68.3252C66.6421 8.15228 65.4187 8.75393 64.5335 10.2035V10.203ZM19.7994 17.1506H21.9843V3.88897H19.799V17.151L19.7994 17.1506ZM28.0274 15.3357C26.5191 15.3357 25.2957 14.144 25.2957 12.6622C25.2957 11.1697 26.5191 9.97752 28.0164 9.97752C29.5352 9.97752 30.77 11.1692 30.77 12.6622C30.77 14.144 29.5352 15.3357 28.0274 15.3357ZM38.8884 15.3357C38.5293 15.3364 38.1737 15.2675 37.8419 15.1328C37.51 14.9982 37.2085 14.8004 36.9547 14.551C36.7009 14.3016 36.4997 14.0054 36.3628 13.6794C36.2258 13.3534 36.1558 13.0041 36.1567 12.6514C36.1567 11.1804 37.3258 9.97752 38.8993 9.97752C40.4729 9.97752 41.642 11.1804 41.642 12.6407C41.642 14.1655 40.3962 15.3357 38.8884 15.3357ZM16.0078 17.1506H18.193V8.15186H16.0078V17.151V17.1506ZM17.0787 3.77062C16.1936 3.77062 15.4504 4.50097 15.4504 5.42455C15.4504 6.3589 16.2264 6.99242 17.0787 6.99242C18.0292 6.99242 18.7504 6.21904 18.7504 5.38152C18.7395 4.53324 17.9853 3.77062 17.0787 3.77062ZM47.3674 11.3844C47.739 10.4931 48.504 9.97752 49.6403 9.97752C50.8094 9.97752 51.5197 10.525 51.8146 11.3844H47.3674Z" fill="white"/>
</g>
<defs>
<clipPath id="clip0_51_2677">
<rect width="91" height="24" fill="white" transform="translate(0.666687 0.5)"/>
</clipPath>
</defs>
</svg>
