<svg width="141" height="32" viewBox="0 0 141 32" fill="none" xmlns="http://www.w3.org/2000/svg">
<g clip-path="url(#clip0_48_1341)">
<path d="M15.4466 32C23.9776 32 30.8933 24.8366 30.8933 16C30.8933 7.16344 23.9776 0 15.4466 0C6.91569 0 0 7.16344 0 16C0 24.8366 6.91569 32 15.4466 32Z" fill="#B5B5B5"/>
<path d="M8.42338 22.1534L7.12927 9.8457H10.6664L11.2013 16.6149L14.3244 9.8457H17.0506L17.8442 16.6149L20.743 9.8457H24.5562L19.0176 22.1534H15.6184L14.8592 15.5776L11.8225 22.1534H8.42338Z" fill="white"/>
<path d="M24.5562 19.6924H22.1798V22.1539H24.5562V19.6924Z" fill="white"/>
<path d="M59.6579 9.78809H65.4352L61.1392 25.1976H55.5693L53.7325 17.9551L51.8956 25.1976H46.3257L42.0298 9.78809H47.8071L49.5254 18.3249L51.6586 9.78809H55.8064L57.9395 18.3249L59.6579 9.78809Z" fill="#B5B5B5"/>
<path d="M71.3512 19.4342C71.8252 20.4615 72.8325 20.9752 74.3731 20.9752C75.2817 20.9752 76.1211 20.6464 76.8914 19.989L80.4761 23.1324C78.9949 24.7967 76.9013 25.6288 74.1953 25.6288C71.6672 25.6288 69.6328 24.8686 68.0922 23.3482C66.5714 21.8072 65.8109 19.8759 65.8109 17.5543C65.8109 15.212 66.5516 13.2601 68.0329 11.6987C69.534 10.1372 71.4203 9.35645 73.6917 9.35645C75.9433 9.35645 77.7901 10.1269 79.2317 11.6678C80.6931 13.1882 81.4243 15.1093 81.4243 17.4309C81.4243 18.109 81.3451 18.7768 81.1874 19.4342H71.3512ZM71.2622 15.7668H76.2396C75.9038 14.534 75.1039 13.9176 73.8398 13.9176C72.5559 13.9176 71.6968 14.534 71.2622 15.7668Z" fill="#B5B5B5"/>
<path d="M92.492 9.35634C94.4866 9.35634 96.1168 10.1268 97.3802 11.6677C98.6445 13.2086 99.2766 15.1503 99.2766 17.4925C99.2766 19.8348 98.6445 21.7764 97.3802 23.3173C96.1168 24.8582 94.4866 25.6287 92.492 25.6287C90.7936 25.6287 89.47 25.0226 88.5218 23.8104V25.1972H83.041V3.62402H88.5218V11.1747C89.47 9.96245 90.7936 9.35634 92.492 9.35634ZM89.2331 19.5574C89.7266 20.1121 90.3691 20.3894 91.1588 20.3894C91.9486 20.3894 92.5807 20.1121 93.0552 19.5574C93.5487 19.0026 93.7958 18.3144 93.7958 17.4925C93.7958 16.6706 93.5487 15.9824 93.0552 15.4276C92.5807 14.8729 91.9486 14.5956 91.1588 14.5956C90.3691 14.5956 89.7266 14.8729 89.2331 15.4276C88.7594 15.9824 88.5218 16.6706 88.5218 17.4925C88.5218 18.3144 88.7594 19.0026 89.2331 19.5574Z" fill="#B5B5B5"/>
<path d="M103.763 8.61709C102.934 8.61709 102.213 8.30891 101.601 7.69256C101.008 7.05563 100.712 6.31598 100.712 5.4736C100.712 4.63121 101.008 3.90184 101.601 3.28547C102.213 2.64854 102.934 2.33008 103.763 2.33008C104.574 2.33008 105.275 2.64854 105.867 3.28547C106.48 3.90184 106.785 4.63121 106.785 5.4736C106.785 6.31598 106.48 7.05563 105.867 7.69256C105.275 8.30891 104.574 8.61709 103.763 8.61709ZM101.008 25.1977V9.78821H106.489V25.1977H101.008Z" fill="#B5B5B5"/>
<path d="M118.3 9.35645C119.92 9.35645 121.213 9.94196 122.181 11.1131C123.169 12.2637 123.663 13.9896 123.663 16.2907V25.1973H118.182V16.907C118.182 15.5305 117.569 14.8422 116.345 14.8422C115.693 14.8422 115.189 15.0579 114.833 15.4894C114.498 15.9209 114.33 16.5167 114.33 17.2769V25.1973H108.849V9.78787H114.33V11.298C115.238 10.0037 116.562 9.35645 118.3 9.35645Z" fill="#B5B5B5"/>
<path d="M141 25.1972H134.927L131.372 19.0335V25.1972H125.89V3.62402H131.372V15.7667L134.482 9.78777H140.704L136.2 17.4925L141 25.1972Z" fill="#B5B5B5"/>
</g>
<defs>
<clipPath id="clip0_48_1341">
<rect width="141" height="32" fill="white"/>
</clipPath>
</defs>
</svg>
